<svg width="640" height="360" viewBox="0 0 640 360" fill="none" xmlns="http://www.w3.org/2000/svg">
  <defs>
    <linearGradient id="roomBg" x1="72" y1="20" x2="560" y2="360" gradientUnits="userSpaceOnUse">
      <stop stop-color="#FFE7B9"/>
      <stop offset="0.58" stop-color="#CFA879"/>
      <stop offset="1" stop-color="#7C5A3C"/>
    </linearGradient>
    <linearGradient id="light" x1="142" y1="30" x2="310" y2="292" gradientUnits="userSpaceOnUse">
      <stop stop-color="#FFF9E8" stop-opacity="0.95"/>
      <stop offset="1" stop-color="#FFF9E8" stop-opacity="0"/>
    </linearGradient>
    <filter id="soft" x="-40" y="-40" width="720" height="440" filterUnits="userSpaceOnUse">
      <feGaussianBlur stdDeviation="14"/>
    </filter>
  </defs>
  <rect width="640" height="360" rx="34" fill="url(#roomBg)"/>
  <rect width="640" height="360" rx="34" fill="url(#light)"/>
  <g opacity="0.52" filter="url(#soft)">
    <ellipse cx="152" cy="62" rx="120" ry="62" fill="#FFF5D5"/>
    <ellipse cx="520" cy="320" rx="180" ry="52" fill="#432E20"/>
  </g>
  <path d="M0 272H640V360H0V272Z" fill="#5F402B" fill-opacity="0.42"/>
  <path d="M64 58H296V236H64V58Z" fill="#F9E6C3" fill-opacity="0.64"/>
  <path d="M80 76H280V220H80V76Z" fill="#74492E" fill-opacity="0.46"/>
  <path d="M80 124H280M80 172H280M132 76V220M184 76V220M236 76V220" stroke="#4E3326" stroke-opacity="0.45" stroke-width="6"/>
  <path d="M358 98H586V268H358V98Z" fill="#5D3C2A" fill-opacity="0.34"/>
  <path d="M382 124H562V246H382V124Z" fill="#F7DCA9" fill-opacity="0.22"/>
  <path d="M350 276C398 250 483 242 546 272" stroke="#3C281D" stroke-opacity="0.34" stroke-width="18" stroke-linecap="round"/>
  <circle cx="506" cy="138" r="12" fill="#E6C38D" fill-opacity="0.75"/>
  <path d="M418 206C443 182 480 178 514 204" stroke="#FAE7BD" stroke-opacity="0.34" stroke-width="8" stroke-linecap="round"/>
</svg>
