<svg width="640" height="360" viewBox="0 0 640 360" fill="none" xmlns="http://www.w3.org/2000/svg">
  <defs>
    <linearGradient id="wall" x1="118" y1="20" x2="520" y2="360" gradientUnits="userSpaceOnUse">
      <stop stop-color="#E4C494"/>
      <stop offset="0.52" stop-color="#A0744E"/>
      <stop offset="1" stop-color="#583822"/>
    </linearGradient>
    <linearGradient id="switch" x1="250" y1="78" x2="382" y2="292" gradientUnits="userSpaceOnUse">
      <stop stop-color="#FFFFFF"/>
      <stop offset="1" stop-color="#C7D2D7"/>
    </linearGradient>
    <filter id="soft" x="-40" y="-40" width="720" height="440" filterUnits="userSpaceOnUse">
      <feGaussianBlur stdDeviation="16"/>
    </filter>
  </defs>
  <rect width="640" height="360" rx="34" fill="url(#wall)"/>
  <g opacity="0.28">
    <path d="M70 0V360M148 0V360M226 0V360M304 0V360M382 0V360M460 0V360M538 0V360" stroke="#3F2818" stroke-width="6"/>
  </g>
  <g filter="url(#soft)" opacity="0.5">
    <ellipse cx="284" cy="104" rx="142" ry="78" fill="#FFF0C8"/>
    <ellipse cx="428" cy="286" rx="168" ry="54" fill="#2F1D12"/>
  </g>
  <rect x="232" y="60" width="176" height="238" rx="22" fill="#422818" fill-opacity="0.22"/>
  <rect x="248" y="46" width="144" height="238" rx="18" fill="url(#switch)"/>
  <rect x="272" y="78" width="96" height="74" rx="12" fill="#F6FAFC"/>
  <rect x="286" y="94" width="68" height="42" rx="7" fill="#DDE8EE"/>
  <path d="M292 116H348" stroke="#8CA5B2" stroke-width="5" stroke-linecap="round"/>
  <circle cx="320" cy="214" r="34" fill="#EAF2F5"/>
  <path d="M304 214H336M320 198V230" stroke="#8CA5B2" stroke-width="7" stroke-linecap="round"/>
  <path d="M438 114C484 130 518 164 534 212" stroke="#F5FEFF" stroke-opacity="0.42" stroke-width="7" stroke-linecap="round"/>
  <path d="M110 258C158 228 207 226 256 254" stroke="#FFE6AF" stroke-opacity="0.34" stroke-width="8" stroke-linecap="round"/>
</svg>
